<?xml version="1.0" encoding="UTF-8"?>
<svg width="1818px" height="283px" viewBox="0 0 1818 283" version="1.1" xmlns="http://www.w3.org/2000/svg" xmlns:xlink="http://www.w3.org/1999/xlink">
    <title>Group 14@2x</title>
    <g id="Desktop" stroke="none" stroke-width="1" fill="none" fill-rule="evenodd">
        <g id="QUIZ-final" transform="translate(-52.000000, -437.000000)">
            <g id="Group-14" transform="translate(52.000000, 437.000000)">
                <path d="M571.084913,0.283839206 L571.79856,0.28908 L933.10656,0.28908 L938.88216,0.23148 L938.88216,0.28908 L938.89056,0.28908 L938.89056,2.99628 L931.40496,2.99868 C915.134112,3.448932 903.291356,6.3807972 903.056128,32.266032 L903.05256,33.05748 L903.05256,34.50828 L902.94816,48.81348 L902.94816,87.50508 L902.94696,246.34668 C902.9652,246.34668 902.968848,247.275192 902.969578,247.646597 L902.96976,247.79748 C902.96976,261.56628 906.81696,270.39588 914.73216,274.79268 C921.325486,278.455511 937.274005,278.649686 938.694262,278.659741 L938.79576,278.66028 L938.79576,281.54868 L842.86296,281.54868 L842.86296,278.65908 L843.821387,278.658849 C851.598964,278.6529 860.244486,278.505871 866.92776,274.79268 C874.729886,270.458691 878.580576,261.81765 878.689003,248.384549 L878.69136,247.79748 L878.69136,246.34668 C878.706456,246.34668 878.710381,158.903064 878.711401,113.432384 L878.71176,30.44028 C878.40096,19.41948 876.13656,12.77988 871.76256,8.31588 C867.737593,4.21003814 862.412093,3.33721045 856.554271,3.07183756 L856.13496,3.05388 L841.92216,3.05388 C835.76616,3.08868 826.88136,5.28708 827.71536,14.45148 C828.04296,16.50708 828.59136,18.49548 829.31376,20.41908 C830.88576,24.21708 833.66256,28.79988 838.06656,34.33908 C839.82096,36.32868 841.68216,38.20908 843.57456,39.96708 C844.27656,40.61868 850.68456,46.50228 859.19616,51.22188 C861.28656,52.38108 866.73816,55.26348 870.40776,57.18348 C871.997846,58.0147371 873.331327,58.7063106 874.272734,59.1938277 L874.48296,59.30268 L874.48296,61.43508 C863.54616,55.75188 853.08576,50.20548 842.45136,42.10308 C833.46456,35.25588 825.86736,27.24228 819.44136,17.82108 C817.31256,14.87388 816.08016,12.05148 812.87376,8.73348 C809.733631,5.48302839 805.414605,3.57667667 801.022748,3.08402976 L800.58336,3.03948 L750.69696,3.05508 C745.82376,3.44148 741.04056,4.37028 736.99416,6.62388 C729.373822,10.8688377 725.573559,18.3389889 725.355321,31.3377966 L725.34816,31.89828 L725.34816,251.06748 C725.34816,277.989648 743.995286,278.643339 759.917328,278.659848 L761.09136,278.66028 L761.09136,281.56188 L665.15736,281.56188 L665.15736,278.65908 L666.294199,278.658834 C678.349509,278.647313 700.460056,278.097247 700.901062,251.870127 L700.90776,251.06748 L701.04816,32.50668 C701.04816,18.70668 697.42776,11.36508 689.98176,7.09668 C685.358663,4.44661548 679.699396,3.6362596 673.698919,3.38444691 L673.09776,3.36108 L612.46536,3.38148 C607.65336,3.52308 601.34736,2.09268 599.22216,7.57068 C597.36576,12.35988 602.59536,18.14748 604.82856,19.90068 C618.03936,30.26628 630.60936,53.49708 631.96416,55.73508 C653.18376,94.23228 657.46416,146.84388 640.73736,190.05348 C612.69696,262.48548 535.87176,300.29268 469.83336,274.49868 C403.79616,248.70468 372.99336,169.07628 401.03496,96.64428 C410.90976,71.13588 426.97416,49.57668 446.50656,33.31188 C450.26136,38.78268 453.22536,44.93988 455.23776,51.57348 C444.50256,64.93548 433.89456,81.00228 425.45736,99.87468 C362.80056,262.55268 528.86856,355.80228 613.25616,190.24788 C644.48496,118.72188 636.68136,52.98108 602.36496,21.97788 C600.88536,20.70468 599.39616,19.43988 597.88416,18.21108 C590.40576,12.47148 581.36256,8.39628 572.43336,5.78148 C571.97136,5.64708 571.54536,5.51628 571.07856,5.39028 C570.53016,5.24988 570.26976,5.19228 569.92416,5.08908 C567.833493,4.55468 565.58259,4.05251704 563.196733,3.59270469 L562.29576,3.42228 L559.36296,2.91588 C555.78216,2.33748 551.92896,1.86468 547.79376,1.55148 C524.20776,0.90708 499.05816,10.18548 476.14896,29.84748 C473.46216,25.91628 470.43216,22.22748 467.10216,18.84348 C486.74616,7.39788 508.53816,0.78588 530.44656,0.00028308084 L530.995944,0.000916645932 C534.093571,0.014392585 549.97189,0.128815944 571.084913,0.283839206 Z M1438.51668,0.04812 L1438.51668,2.95092 L1423.78068,2.94972 C1418.76348,3.09132 1415.11908,5.21892 1411.59588,7.85892 C1407.90348,10.62612 1405.46508,14.78892 1404.19788,19.28052 C1402.98146,23.5004779 1402.66111,27.9778408 1402.68381,32.4320196 L1402.69068,33.17412 L1402.69068,247.95732 C1402.69068,277.975704 1421.35218,278.755745 1438.01246,278.769508 L1438.51668,278.76972 L1438.51668,281.67252 L1342.86228,281.67252 L1342.86228,278.76852 C1358.87028,278.76852 1378.27668,276.19332 1378.27668,245.32692 L1378.27759,243.707246 C1378.28892,224.706569 1378.40238,45.355443 1378.40953,34.0647491 L1378.40988,33.50772 L1378.40868,33.34332 C1378.40868,33.31932 1378.40628,33.29412 1378.40628,33.26892 C1378.36428,28.51812 1377.95628,23.74212 1376.57148,19.31772 C1375.20828,14.88012 1373.07708,10.51932 1369.48068,7.86612 C1365.88308,5.21172 1362.28668,3.11172 1356.55068,3.11172 L1355.03887,3.11214337 C1350.67748,3.1141372 1341.77561,3.12260623 1335.86803,3.12529631 L1332.83388,3.12612 C1327.94028,3.12612 1324.50588,7.40772 1324.25988,11.23932 C1324.04868,14.53812 1325.41188,17.78052 1327.37868,20.38572 C1328.93148,22.43412 1330.83588,24.26292 1332.66348,26.06052 C1337.59188,30.90372 1343.37588,34.61052 1348.99788,38.57892 C1354.77468,42.65412 1360.59108,46.66932 1366.52028,50.52012 C1368.09828,51.54492 1374.30228,55.47012 1374.30228,55.47012 C1374.30228,55.47252 1374.20148,58.28892 1374.20148,58.28892 C1363.31988,52.06812 1352.11668,46.19412 1340.19348,42.43092 C1329.80028,39.15012 1319.22708,40.06212 1308.98268,43.61772 C1299.51228,46.90332 1290.61668,50.92692 1281.86268,55.75452 C1278.82788,57.42732 1275.78468,59.07972 1272.73188,60.71412 C1228.26828,84.53292 1200.25548,108.41892 1204.61028,117.13812 C1206.70188,121.32732 1215.29628,118.06452 1232.41068,111.56292 C1239.61188,108.82932 1248.57228,105.42612 1259.36628,101.69652 C1273.99788,97.36092 1282.84428,97.62492 1286.46468,102.49212 C1291.61661,109.415996 1284.66326,122.972572 1276.98485,136.340443 L1276.74468,136.75812 L1273.04028,143.19372 L1274.15268,135.79212 C1274.75748,131.77332 1274.19108,129.05652 1272.42228,127.48452 C1267.05948,122.71572 1251.00108,127.96452 1235.47068,133.04052 L1234.27113,133.432394 C1214.66939,139.832542 1194.7296,146.08992 1189.73748,134.53572 C1181.19266,114.751872 1218.9084,90.4987066 1256.32503,66.9264263 L1258.61508,65.48412 C1261.95228,63.38292 1275.33588,55.03452 1278.65868,53.04972 C1285.03788,49.24332 1291.58748,45.24012 1297.69548,40.79292 C1307.87268,33.38292 1312.84188,23.62692 1307.80788,13.44012 C1305.18468,8.13012 1300.48188,3.13812 1291.77588,3.13812 L1290.26281,3.13733618 C1279.40283,3.12974654 1220.68091,3.06946008 1214.46462,3.0630681 L1213.42741,3.06255086 C1196.9258,3.06557561 1178.47757,3.36505565 1178.11026,33.0165748 L1178.10468,33.92412 L1178.1044,36.3617475 L1178.10364,51.9527011 C1178.10315,69.9795589 1178.10283,100.461778 1178.10263,132.007261 L1178.10263,246.38899 C1178.10268,246.404385 1178.10273,246.423157 1178.10278,246.444836 L1178.10348,247.79292 C1178.10348,277.914984 1196.23775,278.636131 1212.72207,278.654057 L1213.72908,278.65452 L1298.15268,278.61372 C1301.15148,278.49372 1304.13828,278.10132 1307.01828,277.31532 C1310.87988,276.26652 1314.57108,274.42092 1317.28308,271.48452 C1320.02508,268.57212 1321.38588,264.41172 1321.26228,260.21172 C1321.21668,255.98892 1320.05268,251.82852 1318.66188,247.79172 C1321.40148,253.17492 1323.97548,258.63012 1326.53748,264.09132 C1327.50768,266.13432 1328.43063,268.199595 1329.361,270.26082 L1330.29588,272.31972 L1332.63108,277.47012 L1332.86388,277.98612 L1332.98148,278.24412 C1333.06428,278.44092 1333.13988,278.68572 1333.16508,278.92572 C1333.28628,279.90972 1332.77028,280.90452 1331.89548,281.32932 C1331.73528,281.41302 1331.5636,281.471745 1331.38957,281.51157 L1331.21508,281.54532 L1330.89228,281.56812 L1330.75548,281.57052 L1330.20588,281.57892 C1324.51974,281.691828 1034.71078,281.569887 1017.19813,281.562469 L1016.37108,281.56212 L1016.37108,278.65932 L1017.32943,278.659089 C1025.10588,278.65314 1033.75143,278.506111 1040.43588,274.79292 C1048.23682,270.457749 1052.0875,261.815524 1052.19592,248.384688 L1052.19828,247.79772 L1052.21028,186.17172 C1052.21028,134.05332 965.17188,107.52132 913.97628,81.71412 C912.50668,80.97412 911.022147,80.2495867 909.533347,79.5294978 L907.29828,78.45132 L907.29828,76.31772 C911.64108,78.40572 914.74308,79.89732 914.74308,79.89732 C949.81428,95.96532 1027.20348,120.55572 1046.54988,141.88092 C1052.66321,148.619465 1052.2213,141.332685 1052.21047,141.166206 L1052.21028,35.26452 C1052.20137,35.26452 1052.19907,34.4632531 1052.19848,34.0511729 L1052.19828,33.81252 C1052.19828,3.568152 1033.91879,2.96326464 1017.38124,2.95116689 L1016.37108,2.95092 L1016.37108,0.04812 L1438.51668,0.04812 Z M415.64484,0.42588 C452.81124,0.42588 485.41284,33.66708 485.41284,71.55948 C485.41284,107.77788 455.34564,139.72188 420.26004,142.47708 C420.62604,140.22348 421.04004,137.95668 421.49724,135.67908 C446.93244,128.79828 463.55124,100.99188 463.55124,71.55948 C463.55124,34.313304 435.363172,3.9415494 401.569775,3.33783893 L400.54404,3.32868 L400.54404,3.33228 L337.42524,3.33228 C330.814995,3.33228 325.447215,8.78538261 325.288455,15.5862364 L325.28484,15.89628 L325.28484,132.22308 C325.28484,132.11508 325.55844,134.40828 326.03244,135.43428 C327.154246,137.911312 329.459445,139.654484 332.176944,139.782858 L332.45004,139.79028 L385.94124,139.79028 L385.84329,141.24123 L385.84329,141.24123 L385.75884,142.69308 L332.74764,142.69308 C329.74644,142.75908 327.18804,144.55308 325.99164,147.12708 C325.79844,147.55068 325.64244,147.99348 325.52604,148.45188 C325.51644,148.49028 325.49964,148.52748 325.49004,148.56828 C325.39212,148.97916 325.326456,149.403864 325.298578,149.83932 L325.28484,150.16788 L325.28484,246.34548 L325.31484,246.34548 L325.31484,247.79748 C325.31484,277.918368 343.421453,278.640644 359.880942,278.658616 L361.08804,278.65908 L361.08804,281.56188 L325.28484,281.56188 L301.10244,281.56068 L282.72564,281.56068 L282.72564,281.56188 L271.15044,281.56188 L262.59804,281.56068 L244.37844,281.56068 L220.29324,281.60388 L184.05324,281.56188 L183.98964,280.03428 L184.12404,278.49228 C200.925924,278.895012 218.852179,278.358024 211.516105,246.08519 L211.28604,245.09748 L211.29324,245.09748 L210.87204,243.33828 L201.25884,203.25828 L200.92524,201.86868 L200.53464,200.818283 L200.79249,201.61803 L200.79249,201.61803 L201.04764,202.42788 L201.21324,203.07708 C176.05404,124.95348 42.23004,59.78748 28.84164,24.29748 C28.84164,24.29748 17.3627088,0.23288868 74.6210172,0.503772638 L76.37724,0.51948 L163.87284,0.51948 L415.64484,0.42588 Z M94.57644,92.25144 C95.25084,92.77704 95.92164,93.30024 96.59844,93.82944 L96.59844,93.82944 L45.68244,249.15024 C35.43924,279.00144 53.81724,279.09264 65.07444,278.72424 C67.49844,278.64504 69.22044,278.72424 69.93564,278.72424 L69.93564,278.72424 L69.99204,281.59584 L-0.00036,281.59584 L-0.00036,278.72424 C32.57004,278.72424 36.50484,271.21224 43.47324,249.42984 L43.47324,249.42984 Z M1806.17784,0.14964 C1815.65304,0.14964 1817.64144,4.76124 1817.64144,8.63124 C1817.64144,14.62764 1811.75304,20.30124 1807.32384,24.04764 C1802.67264,27.98124 1749.27624,60.21924 1746.22584,61.85484 C1681.09584,96.74364 1678.85184,110.09484 1680.90984,114.21564 C1683.39984,119.19804 1692.01104,116.13564 1715.02584,107.95164 C1720.20984,106.10724 1726.12104,104.00604 1732.86144,101.67564 C1747.49184,97.33884 1756.33704,97.60404 1759.95744,102.47244 C1765.10937,109.396316 1758.15719,122.951716 1750.47765,136.319564 L1750.23744,136.73724 L1746.53304,143.17404 L1747.64664,135.77124 C1748.25024,131.75364 1747.68504,129.03564 1745.91744,127.46364 C1740.55104,122.69244 1724.49504,127.94484 1708.96464,133.01964 L1707.16484,133.60757 C1687.75677,139.939628 1668.17146,145.948848 1663.23144,134.51604 C1656.49824,118.92924 1678.47984,100.56924 1706.40864,81.95244 C1706.88144,81.63444 1707.35784,81.31884 1707.84264,80.99844 C1715.66424,75.81924 1748.82624,55.01484 1752.15024,53.03244 C1758.52824,49.22484 1765.26744,45.48324 1771.18824,40.77204 C1775.89584,37.02564 1782.24504,31.94604 1785.64704,26.46084 C1793.30904,14.11044 1782.22704,3.29604 1766.63904,3.29604 L1765.96647,3.29557019 C1757.06589,3.28575115 1692.3395,3.1251731 1687.07271,3.11208644 L1685.72208,3.11148689 C1669.3499,3.12346366 1651.27046,3.71643353 1650.9105,33.0743718 L1650.90504,33.97284 L1650.90455,35.6747601 L1650.90367,37.4588858 C1650.90028,47.8874263 1650.89853,96.7259733 1650.89762,144.574303 L1650.89664,246.50604 L1650.96144,246.50604 L1650.96144,247.95684 C1650.96144,278.386272 1669.46651,278.812883 1686.08291,278.819536 L1686.58584,278.81964 L1778.11344,278.82204 C1778.11344,278.785883 1780.69041,278.753728 1781.13858,278.74841 L1781.20464,278.74764 C1784.21184,278.62884 1787.20464,278.23644 1790.09184,277.44804 C1793.95344,276.40164 1797.64344,274.55484 1800.35664,271.61844 C1803.09744,268.70724 1804.45944,264.54804 1804.33464,260.34564 C1804.29024,256.12524 1803.12744,251.96484 1801.73664,247.92804 C1804.46184,253.27764 1807.02144,258.69804 1809.56784,264.12684 C1810.53264,266.15634 1811.45019,268.209465 1812.37567,270.258371 L1813.30584,272.30484 L1815.16224,276.40044 L1815.62544,277.42404 L1815.74184,277.68084 L1815.80064,277.80804 L1815.89904,278.06964 C1816.01664,278.43324 1816.06344,278.83404 1816.02504,279.22644 C1815.94704,280.01004 1815.54024,280.73364 1814.91864,281.19324 C1814.60904,281.42604 1814.26464,281.54964 1813.84944,281.54964 C1813.68814,281.590248 1567.10846,281.551332 1537.51948,281.546516 L1534.62624,281.54604 C1539.26424,195.55524 1529.29584,162.98964 1502.88744,134.12724 C1491.57984,121.76964 1470.01704,106.95804 1460.78304,101.96724 C1460.78304,101.96724 1449.21864,95.67084 1442.30304,92.41524 C1442.30304,92.41524 1407.7805,75.6063192 1405.98962,74.736312 L1405.92144,74.70324 L1405.92144,71.27724 C1412.82864,74.19204 1433.79024,83.61204 1461.98184,95.56524 C1481.53464,103.85604 1501.06104,113.57484 1513.06104,124.43244 C1541.91144,150.53244 1550.20344,187.49604 1560.12744,245.06604 C1560.15024,245.09124 1560.23064,245.47164 1560.23064,245.47164 C1565.95799,272.420232 1574.61505,278.48799 1590.32017,278.645074 L1590.79824,278.64804 L1599.39744,278.64804 C1603.47624,278.63724 1610.36424,277.48284 1614.92064,274.95204 C1622.447,270.770989 1626.25995,262.537665 1626.61871,249.9068 L1626.63264,249.32964 L1626.63264,35.42484 C1626.6288,35.42484 1626.62701,35.0118267 1626.62617,34.6263476 L1626.62544,33.97284 C1626.62544,4.03091568 1609.18074,3.13864634 1592.34714,3.11205671 L1589.60192,3.1119861 C1586.8107,3.11627893 1590.49171,3.13764 1587.27504,3.13764 C1521.6915,3.13764 1583.92045,95.2842898 1484.92844,97.1272228 L1483.47864,97.1392831 L1484.79124,97.1088006 C1531.06092,95.6142055 1538.16843,58.3810444 1530.80962,34.4297142 L1530.57744,33.69324 C1527.41424,23.90364 1520.38464,0.04884 1537.72344,0.04884 L1539.44405,0.0491067168 C1564.81441,0.05479728 1806.17784,0.14964 1806.17784,0.14964 Z M1121.13108,2.92692 L1121.13108,2.95092 L1111.29499,2.95116689 L1110.30087,2.95283648 C1094.20059,2.99884165 1076.83605,4.14920319 1076.48334,32.9140518 L1076.47788,33.81252 L1076.47668,247.79772 C1076.47668,277.7916 1094.45537,278.636956 1110.88376,278.658773 L1111.88748,278.65932 L1111.88748,278.65332 L1118.96813,278.653087 C1126.74321,278.647086 1135.38292,278.498939 1142.06268,274.78692 C1149.86481,270.452931 1153.7155,261.81189 1153.82392,248.379938 L1153.82628,247.79292 L1153.82508,33.92412 C1153.82508,4.96812 1137.07068,3.05412 1121.13108,2.92692 Z M273.792267,3.41917636 L198.62244,3.41838579 C175.10124,3.41838579 187.37484,27.99108 191.90604,50.23188 C191.90604,50.23188 235.585961,241.643058 236.343123,244.982251 L236.35284,245.02548 L236.35284,245.05548 C239.63484,259.94028 245.58804,269.52948 254.51124,274.28388 C259.552399,276.97188 265.159603,278.438294 270.571388,278.53623 L271.15044,278.54148 L273.57084,278.54148 C279.17964,278.54148 284.70204,277.36548 289.32684,274.79148 C297.117137,270.457491 300.961828,261.81645 301.070087,248.384498 L301.07244,247.79748 L301.07244,246.34548 L301.10244,246.34548 L301.10124,34.16148 C301.10124,4.54207392 286.779508,3.45422272 273.792267,3.41917636 Z M78.9822877,3.41921973 L76.26204,3.4184356 C60.42444,3.4184356 53.19924,10.68948 51.97164,16.91148 C51.29124,20.35908 51.77364,23.91948 52.87284,27.24948 C71.183484,82.733832 161.21863,111.797824 194.456354,184.921259 L195.43964,187.137283 L195.42084,187.08228 C196.263829,188.966054 197.80568,188.826015 196.849215,184.862405 L196.79124,184.62948 L157.22604,19.65708 L157.25064,19.5792831 L157.22244,19.65708 C153.446245,6.55488 144.863578,3.38581962 139.178516,3.41868774 L138.98364,3.42108 C135.40182,3.487608 126.877944,4.23863784 121.061849,19.2808665 L120.88644,19.74108 L102.00084,77.34948 L100.99449,76.47108 L100.99449,76.47108 L99.99444,75.59268 L115.81164,26.94228 C123.29604,6.44988 109.46964,3.42588 102.29364,3.42588 L100.303672,3.42533302 C95.68552,3.42402926 84.2400781,3.42073468 78.9822877,3.41921973 Z" id="Combined-Shape" fill="#000"></path>
                <g id="Group-11" transform="translate(0.000000, 91.804800)"></g>
                <path d="M184.10472,278.4912 C184.11072,278.4912 184.11792,278.4924 184.12392,278.4924 L184.12632,278.466 L184.10472,278.4912 Z" id="Fill-12" fill="#000"></path>
            </g>
        </g>
    </g>
</svg>